<?xml version="1.0" standalone="no"?><!DOCTYPE svg PUBLIC "-//W3C//DTD SVG 1.1//EN" "http://www.w3.org/Graphics/SVG/1.1/DTD/svg11.dtd"><svg t="1683802279838" class="icon" viewBox="0 0 1024 1024" version="1.1" xmlns="http://www.w3.org/2000/svg" p-id="5142" xmlns:xlink="http://www.w3.org/1999/xlink" width="200" height="200"><path d="M927.04 27.68H93.6a80 80 0 0 0-80 80v557.76a80 80 0 0 0 80 80h315.52L352 971.2h-71.68a16 16 0 1 0 0 32h460a16 16 0 0 0 0-32h-71.84l-56.96-225.76h315.52a80 80 0 0 0 80-80V107.68a80 80 0 0 0-80-80z m-293.28 944H386.88l56.8-224.96h133.28z m293.28-258.24H93.6a48 48 0 0 1-48-45.6h929.12a48 48 0 0 1-47.68 45.6z m48-77.6H45.6v-528a48 48 0 0 1 48-48h833.44a48 48 0 0 1 48 48z" fill="#3FA9F5" p-id="5143"></path><path d="M824.8 188a14.24 14.24 0 0 0-2.56-4l-1.28-1.12a16 16 0 0 0-3.36-2.24l-1.6-1.6a16 16 0 0 0-5.6-1.12h-121.44a16 16 0 0 0 0 32h81.76L544 432l-198.88-97.44a16 16 0 0 0-18.88 3.68L192 489.12a16 16 0 0 0 1.12 22.88 16 16 0 0 0 22.72-1.44L342.08 368l197.76 96a16 16 0 0 0 18.08-2.88L794.08 232v84.16a16 16 0 0 0 32 0v-122.72a12.8 12.8 0 0 0-1.28-5.44z" fill="#3FA9F5" p-id="5144"></path></svg>